<svg width="45" height="53" viewBox="0 0 45 53" fill="none" xmlns="http://www.w3.org/2000/svg">
<path d="M23.9913 0H32.6996C32.7931 0.380364 32.8658 0.765553 32.9173 1.15385C33.1827 4.18231 34.5681 7.00291 36.8026 9.06426C39.0371 11.1256 41.96 12.2795 45 12.3004V20.508C44.5927 20.6404 44.1652 20.6994 43.7373 20.6821C41.7117 20.4584 39.704 20.0947 37.7286 19.5936C36.0237 18.9375 34.3653 18.1665 32.7649 17.2859V18.3745C32.7649 22.7286 32.7649 27.2134 32.7649 31.6328C32.7867 33.4315 32.6702 35.2293 32.4165 37.0102C32.0346 39.9828 30.8977 42.8081 29.1142 45.2166C27.3306 47.6252 24.9598 49.5368 22.2279 50.7692C20.6224 51.3596 18.9785 51.8397 17.3077 52.2061H14.2816C14.1548 52.1459 14.0238 52.095 13.8897 52.0537C10.8226 51.6637 7.94147 50.3678 5.61464 48.3319C3.28782 46.2959 1.62101 43.6123 0.827286 40.6241C0.461857 39.3237 0.185454 37.9998 0 36.6618V34.1147C0.239478 32.9173 0.413644 31.7199 0.761975 30.5443C1.74315 27.4051 3.63882 24.6301 6.20632 22.5745C8.77382 20.519 11.8963 19.2764 15.1742 19.0058C16.1538 18.8534 17.1335 18.8099 18.1785 18.7228C18.1785 21.553 18.1785 24.1655 18.1785 26.7997C18.1785 27.4311 17.852 27.5181 17.3295 27.6705C15.6603 28.0532 14.0227 28.5626 12.4311 29.1945C11.2052 29.6564 10.152 30.4858 9.41544 31.5691C8.67892 32.6525 8.29507 33.9369 8.3164 35.2467C8.22407 36.7321 8.57126 38.2118 9.31463 39.501C10.058 40.7903 11.1646 41.8321 12.4964 42.4964C13.7142 43.2494 15.1287 43.6226 16.5595 43.5683C17.9903 43.514 19.3725 43.0347 20.5298 42.1916C21.3962 41.5712 22.123 40.7759 22.663 39.8572C23.203 38.9384 23.5442 37.9166 23.6647 36.8578C23.925 34.6909 24.0341 32.5086 23.9913 30.3266C23.9913 20.6604 23.9913 10.9869 23.9913 1.30624C24.0566 0.849057 24.0131 0.435414 23.9913 0Z" fill="black"/>
</svg>
