<svg width="100" height="34" viewBox="0 0 100 34" fill="none" xmlns="http://www.w3.org/2000/svg">
<path d="M14.0789 6.14023H41.2281V0H60.5264V6.14023H66.6666V8.77187L69.2982 6.14023H77.1684L81.5975 0H91.2281V6.14023H95.6141L100 10.5262V25.4385L92.1053 33.3332H70.1754L66.6666 29.8244V33.3332H55.2631L51.7543 29.8244V33.3332H28.0701L24.5613 29.8244V33.3332H12.2807L0 21.0525V0H9.64922L14.0789 6.14023ZM14.9123 23.685V16.6666H8.77187V14.9131H14.9123V7.89472H8.77187V1.7543H1.7543V20.1762L5.26309 23.685H14.9123ZM66.6666 20.1762L70.1754 23.685H80.7018V16.6666H73.6842V14.9131H80.7018V7.89472H70.1754L66.6666 11.4035V20.1762ZM64.9123 23.685V16.6666H58.7719V14.9131H64.9123V7.89472H58.7719V1.7543H51.7543V20.1762L55.2631 23.685H64.9123ZM89.4736 23.685V14.9131H91.2281V23.685H98.2457V11.4035L94.7369 7.89472H89.4736V1.7543H82.4561V23.685H89.4736ZM41.2281 23.685V7.89472H34.2105V16.6666H32.4561V7.89472H25.4387V16.6666H23.6842V7.89472H16.6666V20.1762L20.1754 23.685H41.2281ZM50 23.6842V7.89472H42.9824V23.6842H50ZM50 6.14023V1.7543H42.9824V6.14023H50Z" fill="black"/>
</svg>
